<?xml version="1.0" encoding="UTF-8"?>
<svg version="1.1" xmlns="http://www.w3.org/2000/svg" width="488" height="469">
<path d="M0 0 C1.40810985 -0.00577905 2.81621213 -0.013732 4.22429901 -0.02363622 C8.04766636 -0.0442891 11.87040059 -0.03429439 15.69376862 -0.01870513 C19.83499514 -0.00730581 23.97611924 -0.02489655 28.11732483 -0.03860474 C36.21205366 -0.06075148 44.3065497 -0.05607419 52.40128737 -0.04154153 C58.98500295 -0.03021462 65.56865363 -0.02873327 72.15237617 -0.03416061 C73.09212244 -0.03492678 74.03186871 -0.03569294 75.00009214 -0.03648233 C76.90963444 -0.03808108 78.81917673 -0.03970215 80.728719 -0.04134528 C98.60374665 -0.0555779 116.47864575 -0.03924959 134.35365231 -0.01234345 C149.66389754 0.0099894 164.97395314 0.00611524 180.28419495 -0.01693726 C198.09701866 -0.04374561 215.90972989 -0.05420101 233.72257096 -0.03887594 C235.62509634 -0.03728333 237.52762175 -0.03571147 239.43014717 -0.03416061 C240.83397526 -0.03300355 240.83397526 -0.03300355 242.26616351 -0.03182311 C248.83518929 -0.02752092 255.40414323 -0.03476065 261.97315788 -0.04655838 C269.98844411 -0.06063817 278.00348577 -0.05666916 286.01874428 -0.03015466 C290.10187969 -0.01708913 294.18460861 -0.01173842 298.26774025 -0.02840042 C329.63248316 -0.14585124 329.63248316 -0.14585124 342.35816956 5.63491821 C343.25901496 6.02567221 344.15986036 6.4164262 345.08800411 6.81902122 C347.20168339 7.77185298 349.21026458 8.81608419 351.23316956 9.94741821 C352.29592102 10.52870483 352.29592102 10.52870483 353.38014221 11.12173462 C359.22115481 14.39703132 364.42845717 18.08632645 369.35816956 22.63491821 C370.70975159 23.86661743 370.70975159 23.86661743 372.08863831 25.12319946 C390.30627136 42.48648834 401.13145689 65.53064543 401.93327641 90.7129724 C402.02905864 96.61000927 402.03891189 102.50499657 402.0117929 108.40247989 C402.00032982 112.10133174 402.01801514 115.80007269 402.0316925 119.49890137 C402.05377369 126.71912629 402.04919152 133.93908941 402.0346293 141.15932404 C402.02327516 147.03542795 402.02183264 152.91145919 402.02724838 158.78757095 C402.02801455 159.628194 402.02878071 160.46881705 402.0295701 161.33491353 C402.03116895 163.04336605 402.03279002 164.75181854 402.03443305 166.46027102 C402.04864672 182.43219391 402.03236788 198.40397267 402.00543122 214.37587191 C401.98310462 228.03634882 401.98697104 241.69661313 402.01002502 255.35708618 C402.03687503 271.27399692 402.04726528 287.19078168 402.03196371 303.10771191 C402.0303712 304.81001924 402.02879934 306.51232658 402.02724838 308.21463394 C402.026477 309.05189196 402.02570563 309.88914998 402.02491087 310.75177946 C402.02062075 316.60967565 402.02782207 322.46749095 402.03964615 328.3253746 C402.05377285 335.48038326 402.04966072 342.63511823 402.02324243 349.79009615 C402.01023789 353.43036162 402.00471796 357.07017341 402.02148819 360.71043396 C402.15960088 393.48614569 395.74285014 421.08893925 372.42066956 445.25991821 C367.19158698 450.45646014 361.6819143 454.80821803 355.42066956 458.69741821 C354.75494934 459.11394653 354.08922913 459.53047485 353.40333557 459.95962524 C351.10308935 461.30308393 348.74866865 462.45862534 346.35816956 463.63491821 C345.43184503 464.13846958 344.5055205 464.64202095 343.55112553 465.16083145 C329.58243162 471.63437428 314.35730527 470.49147421 299.30004489 470.41926622 C295.07158467 470.40557901 290.84326838 470.4266996 286.61483765 470.44314575 C278.35143806 470.46971218 270.08836695 470.46411397 261.82495492 470.44666991 C255.10490042 470.43307556 248.38493746 470.43130084 241.66487312 470.43781281 C240.70554609 470.4387322 239.74621906 470.4396516 238.75782152 470.44059886 C236.80849601 470.44251736 234.85917052 470.44446265 232.90984506 470.44643441 C214.66618449 470.46351022 196.42270534 470.44392391 178.17907453 470.41163221 C162.55012418 470.38482436 146.92144127 470.38948929 131.29249573 470.41714478 C113.10903244 470.44930578 94.92572778 470.46186708 76.74224001 470.44347119 C74.80071011 470.44156005 72.85918018 470.43967382 70.91765022 470.43781281 C69.96257033 470.43688715 69.00749045 470.4359615 68.02346874 470.4350078 C61.31669264 470.42984311 54.61001779 470.43853713 47.90325737 470.45269012 C39.72250739 470.46957547 31.54210252 470.46484453 23.36139172 470.43300566 C19.1932558 470.41731424 15.02569376 470.41092802 10.85756302 470.43090057 C7.03219349 470.44895256 3.20792259 470.43867682 -0.61734908 470.40703526 C-2.63555471 470.39729634 -4.65383834 470.41659189 -6.67196041 470.43737864 C-27.25328025 470.17604119 -46.91438776 457.80797678 -61.01023865 443.3644104 C-77.12893953 426.10352908 -87.31385602 403.67975939 -87.16322327 379.92404175 C-87.17087436 378.61804323 -87.17852545 377.31204471 -87.1864084 375.96647048 C-87.20677037 372.38422453 -87.20265644 368.80238328 -87.19404721 365.22010565 C-87.18907614 361.33990125 -87.20718608 357.4597898 -87.22212219 353.57962036 C-87.24752037 345.99413429 -87.25121557 338.40879012 -87.24652167 330.82326868 C-87.24294398 324.65192583 -87.24647878 318.48062578 -87.25497055 312.30928802 C-87.25616093 311.4282663 -87.25735131 310.54724457 -87.25857776 309.63952522 C-87.26100147 307.84924985 -87.26342974 306.05897449 -87.26586251 304.26869914 C-87.28757701 287.50813876 -87.28330606 270.74765901 -87.27109282 253.98709413 C-87.26075962 238.68730795 -87.28325809 223.38777664 -87.32128926 208.08804086 C-87.36012707 192.34189388 -87.37654378 176.59586723 -87.36904275 160.84967208 C-87.36523066 152.02397631 -87.3700763 143.19849733 -87.39847183 134.37284088 C-87.42240532 126.85858729 -87.4249921 119.34468393 -87.4008915 111.83042505 C-87.38918675 108.00416673 -87.38670831 104.17854725 -87.4108963 100.35233307 C-87.58155245 71.35962434 -81.52865581 49.17647186 -61.64183044 27.63491821 C-61.04757263 26.95944946 -60.45331482 26.28398071 -59.84104919 25.58804321 C-44.82085296 9.33790535 -21.82458821 -0.1913391 0 0 Z " fill="#3DA5AB" transform="translate(86.64183044433594,-0.634918212890625)"/>
<path d="M0 0 C2.52587891 1.26831055 2.52587891 1.26831055 5.2265625 2.88671875 C6.24411621 3.48830811 7.26166992 4.08989746 8.31005859 4.7097168 C9.95095459 5.68871948 9.95095459 5.68871948 11.625 6.6875 C54.23943458 31.71225904 98.75349268 50.24748632 147.22705078 60.13525391 C148.35868652 60.36647949 149.49032227 60.59770508 150.65625 60.8359375 C151.66494141 61.03751465 152.67363281 61.2390918 153.71289062 61.44677734 C156 62 156 62 157 63 C157.10464646 64.87938492 157.13856065 66.76273538 157.14526367 68.64501953 C157.15154282 69.86182907 157.15782196 71.07863861 157.16429138 72.33232117 C157.16579842 73.68248466 157.16701571 75.0326485 157.16796875 76.3828125 C157.1720367 77.77761395 157.17631816 79.17241479 157.18080139 80.56721497 C157.19250292 85.08648954 157.1909685 89.60571517 157.1875 94.125 C157.18723312 94.89012531 157.18696625 95.65525063 157.18669128 96.44356155 C157.14980572 180.10043994 157.14980572 180.10043994 146 216 C145.69570068 217.02697998 145.69570068 217.02697998 145.38525391 218.07470703 C138.75240626 240.2034858 126.82327379 260.89239862 111.0859375 277.76171875 C109.13555617 279.85454366 107.28368633 282.00298541 105.4375 284.1875 C101.92324397 288.19582377 98.11281298 291.61603995 94 295 C93.2265625 295.64195312 93.2265625 295.64195312 92.4375 296.296875 C82.99559915 304.10790207 73.23055092 311.25967654 63 318 C62.3105127 318.45810059 61.62102539 318.91620117 60.91064453 319.38818359 C47.15637668 328.47870246 32.77507526 336.43344073 18.26708984 344.23974609 C16.25857567 345.32190027 14.2529943 346.40954551 12.25244141 347.50634766 C10.05290332 348.71105734 7.84293398 349.89211205 5.625 351.0625 C3.91183594 351.97708984 3.91183594 351.97708984 2.1640625 352.91015625 C-3.57541662 354.88708795 -7.68987623 353.28334877 -12.94140625 350.734375 C-14.82188099 349.75245388 -16.69524301 348.75682951 -18.5625 347.75 C-19.5740918 347.21133301 -20.58568359 346.67266602 -21.62792969 346.11767578 C-46.40287605 332.80605166 -71.24223086 317.93087074 -93 300 C-93.51062988 299.5879834 -94.02125977 299.1759668 -94.54736328 298.75146484 C-134.33098781 266.62826575 -154.95640975 224.14838691 -160.36254883 173.51245117 C-160.49040771 172.22959229 -160.6182666 170.9467334 -160.75 169.625 C-160.86561279 168.47040283 -160.98122559 167.31580566 -161.1003418 166.1262207 C-163.12198306 143.57194953 -163.25205282 120.84375166 -163.35009766 98.21142578 C-163.36371961 95.36053379 -163.392167 92.51031059 -163.43212891 89.65966797 C-163.48125508 86.14659809 -163.50617806 82.6341565 -163.51332474 79.12075806 C-163.52323693 77.16458261 -163.55743492 75.20857836 -163.59213257 73.25268555 C-163.58928253 72.07875244 -163.5864325 70.90481934 -163.58349609 69.6953125 C-163.59158295 68.66422363 -163.5996698 67.63313477 -163.60800171 66.57080078 C-163 64 -163 64 -160.61268616 62.18508911 C-158.04124134 61.01870667 -155.87640624 60.38647571 -153.09765625 59.9296875 C-151.66292969 59.67638672 -151.66292969 59.67638672 -150.19921875 59.41796875 C-149.16410156 59.23878906 -148.12898438 59.05960938 -147.0625 58.875 C-100.64949639 50.10446763 -55.28764559 30.13728382 -15.4140625 5.1484375 C-14.37813965 4.50406738 -14.37813965 4.50406738 -13.32128906 3.84667969 C-12.07181219 3.06238688 -10.83065019 2.26459669 -9.60058594 1.45019531 C-5.88988488 -0.89468486 -4.16689427 -1.21271258 0 0 Z " fill="#3CA4AB" transform="translate(246,66)"/>
<path d="M0 0 C0.73207169 -0.0049649 1.46414337 -0.00992981 2.21839905 -0.01504517 C4.64064474 -0.02965151 7.06282492 -0.03646654 9.48510742 -0.04199219 C11.17038474 -0.04774529 12.85566204 -0.053503 14.54093933 -0.05926514 C18.07579859 -0.06977104 21.61063514 -0.07561627 25.14550781 -0.07910156 C29.66820918 -0.08458276 34.19060896 -0.1086044 38.71321583 -0.13707352 C42.19541797 -0.1557266 45.67754788 -0.16090694 49.15979576 -0.16243744 C50.82671442 -0.16545891 52.49363197 -0.17347038 54.16050148 -0.18662262 C56.49655506 -0.2037379 58.83187736 -0.20178972 61.16796875 -0.1953125 C62.19452576 -0.20913467 62.19452576 -0.20913467 63.24182129 -0.22323608 C68.57046792 -0.17711145 72.42833038 1.27680332 76.57519531 4.60229492 C77.97991003 6.42269344 78.47572818 7.87437961 79.02416992 10.10253906 C79.32097656 11.22499023 79.32097656 11.22499023 79.6237793 12.37011719 C80.01900376 13.94188446 80.40961594 15.51481855 80.7956543 17.08886719 C80.99481445 17.83587891 81.19397461 18.58289063 81.39916992 19.35253906 C81.65331665 20.3764978 81.65331665 20.3764978 81.91259766 21.42114258 C83.09801696 23.80435369 84.3403922 24.16442348 86.77807617 25.16113281 C88.89898079 25.45711897 88.89898079 25.45711897 91.14428711 25.41650391 C92.42647125 25.42694229 92.42647125 25.42694229 93.73455811 25.43759155 C94.65126282 25.43659454 95.56796753 25.43559753 96.51245117 25.43457031 C98.46818599 25.45486626 100.42391511 25.47571717 102.37963867 25.49707031 C105.45162767 25.51962242 108.52339114 25.53612386 111.59545898 25.54199219 C114.56820116 25.55156007 117.53993655 25.58539541 120.51245117 25.62207031 C121.42105896 25.61702484 122.32966675 25.61197937 123.26580811 25.60678101 C130.34639453 25.71504912 135.6505904 27.42049633 141.02026367 32.12597656 C141.5590918 32.77695313 142.09791992 33.42792969 142.65307617 34.09863281 C143.20737305 34.74703125 143.76166992 35.39542969 144.33276367 36.06347656 C147.04533373 40.00036878 148.02696734 43.53701568 148.05223083 48.28874207 C148.06220596 49.29927643 148.07218109 50.30981079 148.0824585 51.35096741 C148.08312317 52.44871994 148.08378784 53.54647247 148.08447266 54.67749023 C148.09279617 55.84233948 148.10111969 57.00718872 148.10969543 58.20733643 C148.13380131 62.06045878 148.14256915 65.91341178 148.14916992 69.76660156 C148.15586992 71.77035459 148.16257223 73.77410762 148.16960484 75.77785951 C148.19106033 82.08051028 148.20040788 88.38310726 148.20361328 94.68579102 C148.207243 101.16777593 148.23710074 107.64928574 148.27901787 114.13112563 C148.31382505 119.7109707 148.32916355 125.29065918 148.32985932 130.87061197 C148.3306489 134.19661837 148.34163949 137.52203419 148.36785698 140.84795189 C148.39482092 144.56498469 148.38992886 148.28072088 148.37744141 151.99780273 C148.39969284 153.6292498 148.39969284 153.6292498 148.4223938 155.2936554 C148.35342153 162.5318659 146.94443039 168.152114 142.77807617 174.16113281 C136.21992409 180.47741175 129.70291879 182.46476092 120.6449585 182.43528748 C119.84242779 182.44052415 119.03989708 182.44576083 118.21304727 182.4511562 C115.53252424 182.46611934 112.85219273 182.46686054 110.17163086 182.4675293 C108.24610575 182.47515329 106.32058367 182.4835812 104.39506531 182.49275208 C99.16970331 182.51468097 93.94439982 182.52349389 88.718997 182.52857852 C85.45210516 182.53222416 82.1852286 182.53846533 78.91834259 182.54557991 C67.51464669 182.57006935 56.11099624 182.5831251 44.70727539 182.58666992 C34.0883353 182.59030421 23.46968442 182.62019337 12.8508327 182.66207451 C3.72535552 182.6968001 -5.40002593 182.71221876 -14.52556872 182.71291596 C-19.97197285 182.71370803 -25.41808234 182.72241471 -30.86441803 182.75091362 C-35.98962018 182.77713278 -41.1142842 182.77927781 -46.23952293 182.76325798 C-48.11558139 182.76144653 -49.99167107 182.76810661 -51.86766243 182.78407669 C-70.89334335 182.9361049 -70.89334335 182.9361049 -78.22192383 177.16113281 C-83.20166535 171.84129697 -86.46092283 166.46063964 -86.48934937 159.02006531 C-86.49787933 158.00664062 -86.5064093 156.99321594 -86.51519775 155.94908142 C-86.51429138 154.8481868 -86.51338501 153.74729218 -86.51245117 152.61303711 C-86.5191684 151.44497528 -86.52588562 150.27691345 -86.5328064 149.07345581 C-86.5518095 145.21071116 -86.55571185 141.34814006 -86.55786133 137.48535156 C-86.56070905 136.15164425 -86.56390102 134.81793763 -86.5674324 133.48423195 C-86.58592312 126.4983409 -86.59410437 119.51252604 -86.5925293 112.52661133 C-86.59132867 106.02874939 -86.61241769 99.53122002 -86.64401662 93.0334422 C-86.67022608 87.4434379 -86.68089462 81.8535419 -86.67961848 76.26347667 C-86.67911013 72.92975228 -86.68657803 69.59655835 -86.70597458 66.26285362 C-86.72560235 62.54076037 -86.71980788 58.81951953 -86.70776367 55.09741211 C-86.71900269 54.00259018 -86.7302417 52.90776825 -86.74182129 51.7797699 C-86.6790805 44.13714283 -85.40570092 38.86050134 -80.29223633 32.91894531 C-79.6502832 32.38011719 -79.00833008 31.84128906 -78.34692383 31.28613281 C-77.71012695 30.73183594 -77.07333008 30.17753906 -76.41723633 29.60644531 C-70.73435643 25.86504751 -64.9363763 25.84381405 -58.37036133 25.78222656 C-57.43390778 25.76523209 -56.49745422 25.74823761 -55.53262329 25.73072815 C-52.55412451 25.67781176 -49.57563773 25.63739558 -46.59692383 25.59863281 C-43.61113842 25.55462518 -40.62545729 25.50787821 -37.63980103 25.45582581 C-35.78569416 25.42400726 -33.93149545 25.39707476 -32.07723999 25.37559509 C-31.23601593 25.36210526 -30.39479187 25.34861542 -29.52807617 25.3347168 C-28.42271011 25.32044899 -28.42271011 25.32044899 -27.29501343 25.30589294 C-25.14219715 25.15556564 -23.27046821 24.84205866 -21.22192383 24.16113281 C-20.2011836 22.4541795 -20.2011836 22.4541795 -19.69458008 20.30175781 C-19.45932617 19.51542969 -19.22407227 18.72910156 -18.98168945 17.91894531 C-18.7515918 17.09136719 -18.52149414 16.26378906 -18.28442383 15.41113281 C-16.60925372 9.39770165 -15.30864928 5.20503975 -10.22192383 1.16113281 C-6.74321633 0.00156365 -3.61881755 0.00585902 0 0 Z " fill="#FAF8F5" transform="translate(212.221923828125,142.8388671875)"/>
<path d="M0 0 C3.86550318 2.06741829 7.61879751 4.30379403 11.375 6.5625 C13.50683549 7.82196769 15.63966259 9.07975835 17.7734375 10.3359375 C18.8262793 10.95694336 19.87912109 11.57794922 20.96386719 12.21777344 C55.0746438 32.24098583 92.10100369 48.25927227 131.05859375 55.8046875 C132.23609192 56.03363708 132.23609192 56.03363708 133.43737793 56.26721191 C137.32791256 57.01831037 141.22081364 57.7437189 145.12353516 58.42871094 C154.03125765 60.04359022 161.09677873 61.69644834 167.4375 68.6875 C170.12452834 72.66430194 170.13542247 75.0330987 170.16113281 79.85668945 C170.16601841 80.5658507 170.17090401 81.27501194 170.17593765 82.00566292 C170.1904349 84.37487562 170.19716428 86.74403261 170.203125 89.11328125 C170.21007814 90.78223201 170.21711916 92.45118241 170.22424316 94.12013245 C170.24384527 99.51759068 170.24842705 104.91501016 170.25 110.3125 C170.25088371 111.68156368 170.25088371 111.68156368 170.25178528 113.07828522 C170.28725714 190.5289632 166.42613988 266.75234172 109 325 C92.66752611 341.14505206 72.65253029 354.27703716 53 366 C51.77601907 366.74084809 50.55206172 367.48173514 49.328125 368.22265625 C37.43494055 375.3668312 25.21269149 381.89013497 12.97070312 388.41259766 C10.35490734 389.81035441 7.74583949 391.21937121 5.140625 392.63671875 C4.10059326 393.20011963 4.10059326 393.20011963 3.03955078 393.77490234 C1.27796891 394.72959795 -0.4821784 395.68693929 -2.2421875 396.64453125 C-4.5842101 397.79563868 -6.45480129 398.54493329 -9 399 C-9.65355469 399.12503906 -10.30710938 399.25007813 -10.98046875 399.37890625 C-26.35400383 400.65776669 -43.66765686 386.81892642 -56.35546875 379.51171875 C-58.64247629 378.2043747 -60.93931823 376.92109128 -63.25 375.65625 C-80.47835529 366.2204324 -96.90077233 355.62798871 -112.26513672 343.38085938 C-113.78239163 342.17320475 -115.31389161 340.98349127 -116.84765625 339.796875 C-123.5640011 334.56004193 -129.81566995 328.84506101 -136 323 C-136.85722656 322.19691406 -137.71445313 321.39382813 -138.59765625 320.56640625 C-159.40550699 300.48402732 -174.08375242 274.32553504 -183 247 C-183.32766357 246.00476318 -183.65532715 245.00952637 -183.99291992 243.98413086 C-186.3859248 236.49569044 -188.1972648 229.05206166 -189.5625 221.3125 C-189.77229492 220.12986572 -189.98208984 218.94723145 -190.19824219 217.72875977 C-191.83483226 207.99937047 -192.90274395 198.2631575 -193.75 188.4375 C-193.80898468 187.75386383 -193.86796936 187.07022766 -193.92874146 186.36587524 C-195.40524296 168.87721921 -196.16614758 151.40408626 -196.23828125 133.85546875 C-196.24235678 132.99777704 -196.2464323 132.14008533 -196.25063133 131.25640297 C-196.27119983 126.74312227 -196.28564138 122.22986959 -196.29516602 117.71655273 C-196.30636241 113.07764957 -196.34099334 108.43920874 -196.38033772 103.80047131 C-196.40645341 100.20163584 -196.41485175 96.60291397 -196.41844749 93.00399208 C-196.42330143 91.29239982 -196.43488126 89.58081223 -196.45348549 87.86931419 C-196.47784175 85.48695116 -196.47692277 83.10583812 -196.4699707 80.72338867 C-196.48278076 80.0267511 -196.49559082 79.33011353 -196.50878906 78.61236572 C-196.45587511 73.62928335 -195.07218305 70.86197188 -192 67 C-185.02970011 60.22331955 -175.62717405 59.23448406 -166.4375 57.6875 C-118.66523153 49.15500962 -75.21948589 29.38379932 -33.9440918 4.29223633 C-21.35085912 -3.32760611 -13.79724646 -6.35019206 0 0 Z M-19.89453125 22.5078125 C-20.83748047 23.07588623 -21.78042969 23.64395996 -22.75195312 24.22924805 C-24.26692383 25.16764526 -24.26692383 25.16764526 -25.8125 26.125 C-27.98393556 27.42868635 -30.15716308 28.72939193 -32.33203125 30.02734375 C-33.44143066 30.69233887 -34.55083008 31.35733398 -35.69384766 32.04248047 C-75.20008017 55.43348418 -118.63083677 73.09899647 -163.8684082 81.50537109 C-164.78452881 81.67762207 -165.70064941 81.84987305 -166.64453125 82.02734375 C-167.44221924 82.16906006 -168.23990723 82.31077637 -169.06176758 82.45678711 C-171.21669044 82.88999078 -171.21669044 82.88999078 -173 85 C-173.30019073 87.55928686 -173.30019073 87.55928686 -173.24291992 90.58178711 C-173.24599655 91.75579575 -173.24907318 92.92980438 -173.25224304 94.13938904 C-173.24505753 95.42241409 -173.23787201 96.70543915 -173.23046875 98.02734375 C-173.22927375 99.3722784 -173.22882446 100.71721389 -173.2290802 102.06214905 C-173.22751054 104.90289443 -173.21920828 107.74351471 -173.20581055 110.58422852 C-173.18922094 114.13837702 -173.18508228 117.69238439 -173.18561745 121.24656677 C-173.18483388 144.38003824 -173.05676619 167.58788066 -170.75 190.625 C-170.62214111 191.90785889 -170.49428223 193.19071777 -170.36254883 194.51245117 C-165.24828632 242.41456093 -146.11199646 285.79447781 -108.5234375 316.94140625 C-105.64570376 319.25637051 -102.71189283 321.49068981 -99.74902344 323.6953125 C-98.04165048 324.96893074 -96.35216846 326.26349999 -94.6640625 327.5625 C-76.79459949 341.15389782 -57.40294262 352.75323683 -37.72363281 363.50390625 C-34.99796572 365.00111743 -32.29178067 366.52981271 -29.5859375 368.0625 C-27.8914454 369.00148202 -26.19617138 369.93905483 -24.5 370.875 C-23.74090332 371.31054199 -22.98180664 371.74608398 -22.19970703 372.19482422 C-17.38345771 374.79870051 -14.46802058 375.58475818 -9 374 C-5.90604771 372.75165366 -2.9600744 371.28638717 0 369.75 C0.86230225 369.30962402 1.72460449 368.86924805 2.61303711 368.41552734 C32.83827168 352.81173985 62.56305661 335.05282579 87.75390625 312.0234375 C89.52725596 310.42588072 91.31683982 308.91616508 93.1875 307.4375 C96.85864858 304.25583789 99.88137727 300.71417081 103 297 C103.67933594 296.23171875 104.35867188 295.4634375 105.05859375 294.671875 C134.05942461 260.96680955 143.84296159 216.99417911 146.125 173.6875 C146.18853668 172.5243074 146.18853668 172.5243074 146.25335693 171.33761597 C147.7775036 142.27748407 147.17161988 113.08918064 147 84 C143.97242183 82.42481767 141.3888244 81.55702521 138.01953125 80.95703125 C137.03355957 80.77438721 136.04758789 80.59174316 135.03173828 80.40356445 C133.96938965 80.20851318 132.90704102 80.01346191 131.8125 79.8125 C84.0340059 70.56784285 38.31780075 50.509211 -3.01147461 25.04882812 C-3.85846924 24.53255859 -4.70546387 24.01628906 -5.578125 23.484375 C-6.31450195 23.02772461 -7.05087891 22.57107422 -7.80957031 22.10058594 C-12.67297039 19.65696048 -15.25551833 19.65087872 -19.89453125 22.5078125 Z " fill="#F7F7F4" transform="translate(256,45)"/>
<path d="M0 0 C12.40250994 8.69432707 20.48958741 22.94073415 23.49609375 37.578125 C25.86794367 53.68464075 22.47345143 68.16713152 14 82 C11.24466109 85.62101989 8.25700048 88.82855995 5 92 C4.39800781 92.63421875 3.79601562 93.2684375 3.17578125 93.921875 C-7.78461454 104.66829343 -22.99857409 108.4060115 -37.85229492 108.29321289 C-52.90283801 107.9887937 -66.95319995 101.88840038 -77.7578125 91.3671875 C-90.81531439 77.58174125 -96.58389159 62.6570784 -96.2421875 43.73046875 C-95.24908513 28.43348877 -88.24399891 14.344479 -77 4 C-54.07368389 -15.54770111 -24.95289716 -15.62874277 0 0 Z " fill="#3BA3AA" transform="translate(279,199)"/>
<path d="M0 0 C6.61772585 5.89766241 10.6134062 13.88366883 11.54296875 22.67578125 C11.89415502 33.07967442 9.0424333 42.05308657 2.26171875 50.015625 C-5.42401357 57.46977217 -12.57200909 60.11209916 -23.17578125 60.453125 C-33.9974493 60.17232323 -40.70586753 56.96661225 -48.53515625 49.53125 C-55.46881879 41.61408922 -57.46351237 32.62622979 -57.20703125 22.375 C-56.59542199 13.74366433 -52.10414525 5.79312891 -45.86328125 -0.109375 C-31.72835481 -10.9781728 -14.12137025 -10.55223272 0 0 Z " fill="#F9F7F5" transform="translate(265.73828125,220.984375)"/>
<path d="M0 0 C3.27602101 1.46375407 5.70261669 3.25214937 8 6 C8.80442286 10.21139026 8.42040824 14.01204065 6.75 17.9375 C4.35250482 20.76311932 2.28378607 21.83926581 -1.40234375 22.30078125 C-10.18130063 22.34136194 -10.18130063 22.34136194 -14 19 C-16.35890952 15.96711633 -16.35622018 12.7394812 -16.2578125 8.96484375 C-15.87949755 6.08162525 -14.79180855 4.25635151 -13 2 C-8.75024076 -0.83317282 -4.98912892 -0.52685201 0 0 Z " fill="#3AA2AA" transform="translate(327,192)"/>
<path d="M0 0 C0.33 0 0.66 0 1 0 C1.00135653 0.62621968 1.00271306 1.25243936 1.00411069 1.8976354 C1.08487575 39.06658501 1.17587711 76.23549659 1.28005161 113.40438822 C1.2925695 117.87383999 1.30500243 122.34329199 1.31738281 126.81274414 C1.31984881 127.70247868 1.3223148 128.59221322 1.32485552 129.50890941 C1.36450826 143.8886693 1.39728861 158.26843698 1.42749982 172.64821946 C1.45868598 187.41871692 1.49732565 202.18918152 1.54279006 216.95964199 C1.57057996 226.06341129 1.59265383 235.16715674 1.60726251 244.27095688 C1.6178581 250.52574644 1.63573626 256.78048964 1.65916704 263.03524416 C1.67244708 266.63626194 1.68268365 270.23721518 1.68421364 273.83825874 C1.69219067 288.0155264 1.7737251 301.97275684 4 316 C-0.57252996 309.14120506 -0.28001632 302.60577434 -0.24050903 294.62356567 C-0.24221788 293.36478855 -0.24392673 292.10601143 -0.24568737 290.80908954 C-0.25015318 287.32231621 -0.2421678 283.83566607 -0.23213124 280.34890842 C-0.22348798 276.58619763 -0.22641752 272.82349369 -0.22793579 269.06077576 C-0.22898409 262.5439909 -0.22271326 256.02724612 -0.21146011 249.51047134 C-0.19520059 240.08833446 -0.18999664 230.66621693 -0.18748413 221.24406753 C-0.18310774 205.95697154 -0.16980015 190.6698969 -0.15087891 175.3828125 C-0.13251867 160.53352973 -0.11836286 145.68425277 -0.10986328 130.83496094 C-0.10933783 129.91952964 -0.10881239 129.00409833 -0.10827102 128.06092669 C-0.10566093 123.46844066 -0.10313352 118.87595459 -0.10064721 114.28346848 C-0.07991645 76.18896404 -0.04469243 38.09448343 0 0 Z " fill="#289CA2" transform="translate(0,83)"/>
<path d="M0 0 C9.99675717 0.71005004 20.27310802 1.59045789 29 7 C30.375 9.25 30.375 9.25 31 12 C31.804375 13.7634375 31.804375 13.7634375 32.625 15.5625 C34.66544985 20.90458228 34.25336818 26.3695961 34 32 C33.67 32 33.34 32 33 32 C32.67 52.13 32.34 72.26 32 93 C31.67 93 31.34 93 31 93 C30.99635437 92.0486618 30.99270874 91.09732361 30.98895264 90.11715698 C30.95197583 81.14197469 30.89417392 72.16713465 30.81609726 63.19221306 C30.77662527 58.5783231 30.74443547 53.9646239 30.72900391 49.35058594 C30.71383541 44.89589723 30.67938668 40.44173301 30.63169098 35.98727798 C30.61687913 34.28972055 30.60895909 32.59208824 30.60811615 30.8944664 C30.60574406 28.51224925 30.57864743 26.1314787 30.54589844 23.74951172 C30.5509288 23.05107651 30.55595917 22.3526413 30.56114197 21.63304138 C30.44071236 15.9534975 28.39355148 12.38762685 24.421875 8.42578125 C19.11656618 4.89304057 13.66427648 3.91875586 7.45996094 2.98754883 C2.18348431 2.18348431 2.18348431 2.18348431 0 0 Z " fill="#4AA8AE" transform="translate(395,102)"/>
<path d="M0 0 C3.9143098 3.20261711 7.54910376 6.52406072 11.07299805 10.15576172 C17.8837221 17.15961071 25.21179312 23.12303576 33 29 C34.80621634 30.37342154 36.61040902 31.74939651 38.41235352 33.12841797 C40.02373321 34.3600955 41.64059571 35.58459052 43.2578125 36.80859375 C45.68632338 38.7493268 47.8588718 40.75130316 50 43 C45.13428089 41.41864129 41.51153345 38.63184331 37.5 35.5625 C36.79294922 35.02463867 36.08589844 34.48677734 35.35742188 33.93261719 C25.39826598 26.29965477 16.10607938 18.27335404 7.1875 9.4375 C6.47464844 8.73399414 5.76179688 8.03048828 5.02734375 7.30566406 C4.3725 6.64663086 3.71765625 5.98759766 3.04296875 5.30859375 C2.45539795 4.71876709 1.86782715 4.12894043 1.26245117 3.52124023 C0 2 0 2 0 0 Z " fill="#28989F" transform="translate(109,357)"/>
<path d="M0 0 C0.33 0 0.66 0 1 0 C2.1212955 8.09811539 1.94210264 15.97445129 1.5625 24.125 C1.51029297 25.36765625 1.45808594 26.6103125 1.40429688 27.890625 C1.27581738 30.92741301 1.14091542 33.96376798 1 37 C0.67 37 0.34 37 0 37 C-0.495 39.475 -0.495 39.475 -1 42 C-1.33 42 -1.66 42 -2 42 C-1.41245698 27.99531704 -0.76757602 13.99601386 0 0 Z " fill="#42A5AD" transform="translate(425,198)"/>
<path d="M0 0 C3.87651851 1.40708476 7.11888481 3.23937918 10.5625 5.5 C13.65412231 7.52391918 16.69404516 9.358018 20 11 C21.625 12.5 21.625 12.5 23 14 C23.66 14.66 24.32 15.32 25 16 C20.6359039 15.38935223 17.35349156 13.78981373 13.5 11.6875 C11.84484375 10.79611328 11.84484375 10.79611328 10.15625 9.88671875 C5.71338124 7.23089497 1.94158596 4.94221881 0 0 Z " fill="#84C3C8" transform="translate(36,449)"/>
<path d="M0 0 C4.07784354 1.26232337 7.70890379 2.77613508 11.44921875 4.828125 C12.46306641 5.38113281 13.47691406 5.93414062 14.52148438 6.50390625 C15.56626953 7.08011719 16.61105469 7.65632813 17.6875 8.25 C19.22567383 9.09111328 19.22567383 9.09111328 20.79492188 9.94921875 C22.84405509 11.07022277 24.89208474 12.19324659 26.93896484 13.31835938 C31.61995088 15.88995228 36.31009557 18.44471866 41 21 C40.01 21.495 40.01 21.495 39 22 C36.74438477 21.10717773 36.74438477 21.10717773 33.94140625 19.68359375 C32.91466797 19.16603516 31.88792969 18.64847656 30.83007812 18.11523438 C29.75177734 17.56158203 28.67347656 17.00792969 27.5625 16.4375 C26.51900391 15.91091797 25.47550781 15.38433594 24.40039062 14.84179688 C21.25642659 13.24737191 18.12613216 11.62908347 15 10 C13.9776123 9.47164551 12.95522461 8.94329102 11.90185547 8.39892578 C10.9326416 7.88700684 9.96342773 7.37508789 8.96484375 6.84765625 C8.10366943 6.39527588 7.24249512 5.94289551 6.35522461 5.47680664 C3.85773905 3.9107975 1.99906636 2.15561801 0 0 Z " fill="#22959D" transform="translate(259,75)"/>
<path d="M0 0 C3.34069124 3.11394749 5.8222918 6.47020049 8.375 10.25 C11.78988775 15.26806834 15.29536675 20.19124076 19 25 C18.34 25.33 17.68 25.66 17 26 C0 4.48490946 0 4.48490946 0 0 Z " fill="#2899A0" transform="translate(90,331)"/>
<path d="M0 0 C2.94372839 1.40205245 5.62213369 3.00343262 8.328125 4.8203125 C9.52695313 5.62275391 9.52695313 5.62275391 10.75 6.44140625 C11.575 6.99699219 12.4 7.55257813 13.25 8.125 C14.09046875 8.68832031 14.9309375 9.25164062 15.796875 9.83203125 C17.86598953 11.21927849 19.93363383 12.60866371 22 14 C21.01 14.495 21.01 14.495 20 15 C18.36767578 14.24316406 18.36767578 14.24316406 16.4453125 13.015625 C15.39923828 12.35433594 15.39923828 12.35433594 14.33203125 11.6796875 C13.60371094 11.20789063 12.87539062 10.73609375 12.125 10.25 C11.40441406 9.79367187 10.68382812 9.33734375 9.94140625 8.8671875 C2.29622667 3.99567344 2.29622667 3.99567344 0 2 C0 1.34 0 0.68 0 0 Z " fill="#2A989F" transform="translate(172,378)"/>
<path d="M0 0 C0.33 0 0.66 0 1 0 C0.67 6.6 0.34 13.2 0 20 C-0.66 20 -1.32 20 -2 20 C-2.05425226 17.60385874 -2.09379027 15.20896147 -2.125 12.8125 C-2.14175781 12.13896484 -2.15851563 11.46542969 -2.17578125 10.77148438 C-2.21538674 6.71192193 -1.80020002 3.65001185 0 0 Z " fill="#47A7AF" transform="translate(185,234)"/>
<path d="M0 0 C3.57410797 2.68058098 6.31941902 5.42589203 9 9 C8.67 9.66 8.34 10.32 8 11 C7.54109375 10.65066406 7.0821875 10.30132812 6.609375 9.94140625 C5.99578125 9.48636719 5.3821875 9.03132813 4.75 8.5625 C4.14671875 8.11003906 3.5434375 7.65757813 2.921875 7.19140625 C0.93707244 5.96099003 -0.71987655 5.43887332 -3 5 C-3 4.34 -3 3.68 -3 3 C-2.34 3 -1.68 3 -1 3 C-0.67 2.01 -0.34 1.02 0 0 Z " fill="#71BAC0" transform="translate(462,29)"/>
<path d="M0 0 C4.23322844 0.62045463 7.52290295 2.10523559 11.3125 4.0625 C12.38113281 4.61035156 13.44976562 5.15820312 14.55078125 5.72265625 C15.35902344 6.14417969 16.16726563 6.56570312 17 7 C17 7.33 17 7.66 17 8 C10.25 7.125 10.25 7.125 8 6 C8 5.34 8 4.68 8 4 C5.36 3.67 2.72 3.34 0 3 C0 2.01 0 1.02 0 0 Z " fill="#72BBC0" transform="translate(424,4)"/>
<path d="M0 0 C4.62675657 1.3922459 8.64686231 3.29520984 12.875 5.625 C14.02742188 6.25664063 15.17984375 6.88828125 16.3671875 7.5390625 C17.67042969 8.26222656 17.67042969 8.26222656 19 9 C18.34 9.66 17.68 10.32 17 11 C14.91160637 9.92562408 12.82966486 8.84104473 10.75 7.75 C9.58984375 7.14671875 8.4296875 6.5434375 7.234375 5.921875 C4.30631938 4.18201586 2.25491658 2.52282746 0 0 Z " fill="#2C9AA3" transform="translate(259,75)"/>
<path d="M0 0 C1.98259697 3.96519393 2.24359157 4.92027232 1.8125 9.0625 C1.69841797 10.34833984 1.69841797 10.34833984 1.58203125 11.66015625 C1 14 1 14 -2 17 C-1.34 11.39 -0.68 5.78 0 0 Z " fill="#4AAAB0" transform="translate(421,251)"/>
<path d="M0 0 C3.85025879 0.60355408 6.86101159 1.76772603 10.3125 3.5625 C11.19550781 4.01753906 12.07851563 4.47257812 12.98828125 4.94140625 C13.65214844 5.29074219 14.31601562 5.64007813 15 6 C15 6.33 15 6.66 15 7 C13.02 7 11.04 7 9 7 C8.67 6.01 8.34 5.02 8 4 C7.236875 3.896875 6.47375 3.79375 5.6875 3.6875 C2.82940576 2.95635961 1.84257115 2.23048087 0 0 Z " fill="#2F9BA4" transform="translate(303,98)"/>
<path d="M0 0 C0.8971875 0.309375 0.8971875 0.309375 1.8125 0.625 C-0.4738012 1.98902043 -2.76571749 3.34134274 -5.0625 4.6875 C-6.03896484 5.27241211 -6.03896484 5.27241211 -7.03515625 5.86914062 C-8.71815725 6.84944533 -10.45046199 7.74398432 -12.1875 8.625 C-12.8475 8.295 -13.5075 7.965 -14.1875 7.625 C-2.1875 -0.375 -2.1875 -0.375 0 0 Z " fill="#329DA5" transform="translate(309.1875,411.375)"/>
<path d="M0 0 C-5.5409866 2.52958084 -11.14340094 4.33846988 -17 6 C-17 5.34 -17 4.68 -17 4 C-14.92227529 3.13227971 -12.83756823 2.28126381 -10.75 1.4375 C-9.58984375 0.96183594 -8.4296875 0.48617187 -7.234375 -0.00390625 C-4.13733356 -0.95770524 -2.92678299 -1.20983356 0 0 Z " fill="#369FA7" transform="translate(168,106)"/>
<path d="M0 0 C0.640625 1.76953125 0.640625 1.76953125 1 4 C0.109375 5.88671875 0.109375 5.88671875 -1.25 7.6875 C-1.68828125 8.28949219 -2.1265625 8.89148438 -2.578125 9.51171875 C-4 11 -4 11 -7 12 C-5.44298069 7.32894208 -2.91552627 3.91294315 0 0 Z " fill="#6CB7BD" transform="translate(18,35)"/>
<path d="M0 0 C0.33 0 0.66 0 1 0 C1.33 5.94 1.66 11.88 2 18 C1.67 18 1.34 18 1 18 C0.67 19.65 0.34 21.3 0 23 C-0.33 23 -0.66 23 -1 23 C-0.67 15.41 -0.34 7.82 0 0 Z " fill="#69B6BC" transform="translate(424,217)"/>
<path d="M0 0 C9.29411765 2.95721925 9.29411765 2.95721925 13 7 C13.66 7.66 14.32 8.32 15 9 C9.87891494 8.14648582 6.53210954 6.8392495 3 3 C2.443125 2.443125 1.88625 1.88625 1.3125 1.3125 C0.879375 0.879375 0.44625 0.44625 0 0 Z " fill="#73BBC0" transform="translate(46,456)"/>
<path d="M0 0 C0.99 0.33 1.98 0.66 3 1 C3 2.32 3 3.64 3 5 C3.66 5 4.32 5 5 5 C6.35439668 7.70879335 6.06501451 10.00933268 6 13 C2.57068046 9.2440786 1.43570917 4.76533255 0 0 Z " fill="#86C3C7" transform="translate(5,408)"/>
<path d="M0 0 C1.95216435 1.95216435 2.84826645 3.53199953 4 6 C4.33 6 4.66 6 5 6 C5 9.63 5 13.26 5 17 C3.025333 14.03799949 2.28044646 11.90228368 1.375 8.5 C1.11460938 7.5409375 0.85421875 6.581875 0.5859375 5.59375 C0 3 0 3 0 0 Z " fill="#8CC8CC" transform="translate(0,390)"/>
<path d="M0 0 C-0.33 0.99 -0.66 1.98 -1 3 C-3.28515625 3.94921875 -3.28515625 3.94921875 -6.0625 4.6875 C-7.44115234 5.06455078 -7.44115234 5.06455078 -8.84765625 5.44921875 C-9.55792969 5.63097656 -10.26820313 5.81273438 -11 6 C-11 5.34 -11 4.68 -11 4 C-4.5 0 -4.5 0 0 0 Z " fill="#359FA5" transform="translate(221,79)"/>
<path d="M0 0 C3.03852705 1.40976705 5.5939595 3.08870228 8.25 5.125 C8.95640625 5.66382813 9.6628125 6.20265625 10.390625 6.7578125 C10.92171875 7.16773438 11.4528125 7.57765625 12 8 C8.18692647 8 6.25171122 6.96457553 3 5 C1.125 2.3125 1.125 2.3125 0 0 Z " fill="#8DC7CB" transform="translate(444,14)"/>
<path d="M0 0 C0.66 0.33 1.32 0.66 2 1 C2 5 2 5 0.46875 6.703125 C-0.1809375 7.21359375 -0.830625 7.7240625 -1.5 8.25 C-2.1496875 8.77078125 -2.799375 9.2915625 -3.46875 9.828125 C-3.9740625 10.21484375 -4.479375 10.6015625 -5 11 C-5.66 10.67 -6.32 10.34 -7 10 C-6.21625 9.278125 -5.4325 8.55625 -4.625 7.8125 C-2.15587562 5.16700959 -1.06739722 3.39626389 0 0 Z " fill="#2C9CA3" transform="translate(346,349)"/>
<path d="M0 0 C0.66 0.33 1.32 0.66 2 1 C2 2.65 2 4.3 2 6 C2.99 6.33 3.98 6.66 5 7 C2.525 8.485 2.525 8.485 0 10 C-1.2380014 6.42355152 -0.74926071 3.66305234 0 0 Z " fill="#2F9EA6" transform="translate(424,234)"/>
<path d="M0 0 C0.66 0.33 1.32 0.66 2 1 C-0.65654657 4.73884332 -2.58110387 6.64978174 -7 8 C-5.50902342 4.2047869 -3.24299151 2.38957269 0 0 Z " fill="#349FA5" transform="translate(355,378)"/>
<path d="M0 0 C0.99 0.33 1.98 0.66 3 1 C1.92643323 2.15498897 0.84070212 3.29867867 -0.25 4.4375 C-0.85328125 5.07558594 -1.4565625 5.71367187 -2.078125 6.37109375 C-4.10048016 8.08516306 -5.41270605 8.59358878 -8 9 C-8 8.34 -8 7.68 -8 7 C-6.50390625 5.78125 -6.50390625 5.78125 -4.5625 4.5 C-1.77468153 2.7134637 -1.77468153 2.7134637 0 0 Z " fill="#339DA5" transform="translate(355,315)"/>
<path d="M0 0 C0 0.66 0 1.32 0 2 C-6.4 5.07692308 -6.4 5.07692308 -9.4375 4.6875 C-9.953125 4.460625 -10.46875 4.23375 -11 4 C-4.5 0 -4.5 0 0 0 Z " fill="#379EA5" transform="translate(283,427)"/>
<path d="M0 0 C0.66 0 1.32 0 2 0 C3.84827434 3.6125362 5.55049545 7.2089881 7 11 C6.34 11 5.68 11 5 11 C4.16151196 9.54462432 3.32936066 8.08559627 2.5 6.625 C1.80390625 5.40683594 1.80390625 5.40683594 1.09375 4.1640625 C0 2 0 2 0 0 Z " fill="#339DA4" transform="translate(106,309)"/>
<path d="M0 0 C-3.85756507 2.15305957 -6.55129785 3.39253254 -11 3 C-10 1 -10 1 -7.1875 -0.1875 C-4.14038924 -0.96421451 -2.86250637 -1.10096399 0 0 Z " fill="#2D9BA2" transform="translate(150,113)"/>
<path d="M0 0 C0.66 0.33 1.32 0.66 2 1 C-1.465 3.97 -1.465 3.97 -5 7 C-5.99 6.34 -6.98 5.68 -8 5 C-6.71475739 4.13619741 -5.42157581 3.28419631 -4.125 2.4375 C-3.04605469 1.72400391 -3.04605469 1.72400391 -1.9453125 0.99609375 C-1.30335938 0.66738281 -0.66140625 0.33867188 0 0 Z " fill="#E2EEEE" transform="translate(229,45)"/>
<path d="M0 0 C0.68707555 2.49064888 1 4.37886292 1 7 C-0.82193842 8.9249647 -2.89235283 10.37535531 -5 12 C-3.41037341 7.96479403 -1.71767682 3.98188718 0 0 Z " fill="#D4E8E9" transform="translate(298,269)"/>
<path d="M0 0 C3.16115776 1.36983503 3.9927092 1.9890638 6 5 C5.625 7.1875 5.625 7.1875 5 9 C1.125 3.375 1.125 3.375 0 0 Z " fill="#319FA6" transform="translate(286,144)"/>
<path d="M0 0 C0.66 0.33 1.32 0.66 2 1 C-1.28804981 3.91227269 -3.59885603 5.49701212 -8 6 C-5.38485683 3.87961365 -2.80362384 1.86908256 0 0 Z " fill="#329DA5" transform="translate(330,397)"/>
<path d="M0 0 C2.05078125 0.03255208 4.1015625 0.06510417 6.15234375 0.09765625 C6.15234375 0.42765625 6.15234375 0.75765625 6.15234375 1.09765625 C4.17234375 1.42765625 2.19234375 1.75765625 0.15234375 2.09765625 C0.15234375 3.08765625 0.15234375 4.07765625 0.15234375 5.09765625 C-0.83765625 5.59265625 -0.83765625 5.59265625 -1.84765625 6.09765625 C-2.22984392 4.44150968 -2.56160727 2.77308601 -2.84765625 1.09765625 C-1.84765625 0.09765625 -1.84765625 0.09765625 0 0 Z " fill="#2B99A2" transform="translate(86.84765625,127.90234375)"/>
<path d="M0 0 C2.64 0 5.28 0 8 0 C5.64031256 2.09749995 4.45383006 2.96905704 1.25 3.1875 C0.13625 3.0946875 0.13625 3.0946875 -1 3 C-0.67 2.01 -0.34 1.02 0 0 Z " fill="#319FA7" transform="translate(99,125)"/>
<path d="M0 0 C3.82097239 0.53069061 6.06171403 1.49701566 9 4 C2.25 3.125 2.25 3.125 0 2 C0 1.34 0 0.68 0 0 Z " fill="#69B5BC" transform="translate(432,8)"/>
<path d="M0 0 C0.99 0 1.98 0 3 0 C5.125 4.625 5.125 4.625 4 8 C2.68 5.36 1.36 2.72 0 0 Z " fill="#8BC6C9" transform="translate(12,423)"/>
<path d="M0 0 C3 1 3 1 4.75 3.4375 C5.36875 4.7059375 5.36875 4.7059375 6 6 C5.67 6.66 5.34 7.32 5 8 C0 2.25 0 2.25 0 0 Z " fill="#319BA3" transform="translate(120,331)"/>
</svg>
